<svg width="64" height="64" viewBox="0 0 300 300" fill="none" xmlns="http://www.w3.org/2000/svg">
  <defs>
    <linearGradient id="fv-orbit" x1="30" y1="250" x2="270" y2="70" gradientUnits="userSpaceOnUse">
      <stop stop-color="#1D4ED8"/>
      <stop offset="1" stop-color="#3B82F6"/>
    </linearGradient>
    <radialGradient id="fv-core" cx="0.5" cy="0.5" r="0.5">
      <stop stop-color="#7DD3FC"/>
      <stop offset="1" stop-color="#2563EB"/>
    </radialGradient>
  </defs>
  <rect width="300" height="300" rx="64" fill="#0B1533"/>
  <g transform="translate(4 14)">
    <ellipse cx="150" cy="160" rx="128" ry="56" transform="rotate(-24 150 160)" stroke="url(#fv-orbit)" stroke-width="8" fill="none" stroke-linecap="round" stroke-dasharray="330 140" stroke-dashoffset="60"/>
    <g stroke="#94A3B8" stroke-width="3" opacity="0.7">
      <line x1="118" y1="70" x2="196" y2="96"/>
      <line x1="118" y1="70" x2="78" y2="140"/>
      <line x1="150" y1="150" x2="118" y2="70"/>
      <line x1="196" y1="96" x2="222" y2="160"/>
      <line x1="78" y1="140" x2="108" y2="196"/>
      <line x1="150" y1="150" x2="222" y2="160"/>
      <line x1="150" y1="150" x2="108" y2="196"/>
      <line x1="150" y1="150" x2="166" y2="212"/>
    </g>
    <circle cx="118" cy="70" r="12" fill="#E2E8F0"/>
    <circle cx="196" cy="96" r="12" fill="#E2E8F0"/>
    <circle cx="78" cy="140" r="14" fill="#38BDF8"/>
    <circle cx="222" cy="160" r="11" fill="#E2E8F0"/>
    <circle cx="108" cy="196" r="12" fill="#E2E8F0"/>
    <circle cx="166" cy="212" r="12" fill="#E2E8F0"/>
    <circle cx="150" cy="150" r="18" fill="url(#fv-core)"/>
  </g>
</svg>
